<?xml version="1.0" encoding="UTF-8"?>
<svg version="1.1" xmlns="http://www.w3.org/2000/svg" width="500" height="159">
<path d="M0 0 C2.24480642 5.61201606 3.83348574 11.07136283 5 17 C5.66 17 6.32 17 7 17 C7.10957031 16.443125 7.21914062 15.88625 7.33203125 15.3125 C8.44275248 9.96658969 9.97225526 5.06936184 12 0 C18.06732052 1.03767051 23.4373852 2.33961901 29 5 C28.79503906 5.80824219 28.59007812 6.61648437 28.37890625 7.44921875 C28.10949219 8.51785156 27.84007812 9.58648437 27.5625 10.6875 C27.29566406 11.74324219 27.02882813 12.79898437 26.75390625 13.88671875 C26.10270103 16.57589263 25.54263334 19.28683331 25 22 C29.29 19.03 33.58 16.06 38 13 C44.83076923 18.69230769 44.83076923 18.69230769 46.9375 22.125 C47.56978516 23.11886719 47.56978516 23.11886719 48.21484375 24.1328125 C49 26 49 26 48 29 C45.8336239 30.66577923 43.71005612 32.18549654 41.4375 33.6875 C38.2509375 35.8221875 38.2509375 35.8221875 35 38 C40.94 38.33 46.88 38.66 53 39 C53.82822796 42.31291186 54.13519309 44.6566657 54.125 48 C54.12886719 49.2684375 54.12886719 49.2684375 54.1328125 50.5625 C54 53 54 53 53 57 C44.585 57.495 44.585 57.495 36 58 C40.29 60.97 44.58 63.94 49 67 C48.11424982 71.42875091 47.53785759 73.15224348 45.125 76.6875 C44.61195313 77.45449219 44.09890625 78.22148438 43.5703125 79.01171875 C42 81 42 81 39 83 C34.38 79.7 29.76 76.4 25 73 C25.474375 74.85625 25.94875 76.7125 26.4375 78.625 C27.48783354 82.73500079 28.35155914 86.80716882 29 91 C23.66068812 93.86034565 18.92056432 95.73130765 13 97 C12.67 96.01 12.34 95.02 12 94 C9.69 95.32 7.38 96.64 5 98 C10.94 98 16.88 98 23 98 C24.2062252 101.61867559 24.10816918 104.92506251 24.0625 108.6875 C24.05798828 109.38939453 24.05347656 110.09128906 24.04882812 110.81445312 C24.03706927 112.54300538 24.01913454 114.27151365 24 116 C20.69005287 117.65497356 17.00877 117.10084335 13.375 117.0625 C12.17230469 117.05573242 12.17230469 117.05573242 10.9453125 117.04882812 C8.96350994 117.03703168 6.98174567 117.01909605 5 117 C6.49853516 118.04800781 6.49853516 118.04800781 8.02734375 119.1171875 C9.330888 120.03623309 10.63426477 120.95551626 11.9375 121.875 C12.59685547 122.33519531 13.25621094 122.79539062 13.93554688 123.26953125 C18.88671875 126.7734375 18.88671875 126.7734375 20 129 C18.70703125 131.49609375 18.70703125 131.49609375 16.8125 134.4375 C16.20019531 135.40558594 15.58789062 136.37367188 14.95703125 137.37109375 C13 140 13 140 9 143 C4.38 139.7 -0.24 136.4 -5 133 C-4.319375 135.206875 -3.63875 137.41375 -2.9375 139.6875 C-0.35461188 148.06231904 -0.35461188 148.06231904 -2 152 C-4.07421875 153.36328125 -4.07421875 153.36328125 -6.6875 154.3125 C-7.53699219 154.63863281 -8.38648437 154.96476563 -9.26171875 155.30078125 C-12 156 -12 156 -18 156 C-20.475 148.08 -20.475 148.08 -23 140 C-25.16965398 143.25448097 -26.36143262 146.5253585 -27.625 150.1875 C-27.96917969 151.16879883 -27.96917969 151.16879883 -28.3203125 152.16992188 C-28.88395144 153.77864135 -29.44247984 155.38914977 -30 157 C-36.06732052 155.96232949 -41.4373852 154.66038099 -47 152 C-46.54321462 150.14545138 -46.0844894 148.29138051 -45.625 146.4375 C-45.36976562 145.40496094 -45.11453125 144.37242187 -44.8515625 143.30859375 C-43.96290639 139.85587941 -42.97944713 136.42806495 -42 133 C-49.425 138.445 -49.425 138.445 -57 144 C-63.88434415 138.26304654 -63.88434415 138.26304654 -66 134.9375 C-66.6496875 133.96103516 -66.6496875 133.96103516 -67.3125 132.96484375 C-68 131 -68 131 -67.5078125 129.05078125 C-65.40461225 126.19021096 -62.73435789 124.2875292 -59.875 122.25 C-57.93625 120.8475 -55.9975 119.445 -54 118 C-59.94 117.67 -65.88 117.34 -72 117 C-73.06385483 113.80843552 -73.16677982 111.41502524 -73.1875 108.0625 C-73.20167969 107.02222656 -73.21585938 105.98195313 -73.23046875 104.91015625 C-73 102 -73 102 -71 98 C-65.06 98 -59.12 98 -53 98 C-57.5590648 94.79434181 -57.5590648 94.79434181 -62.12475586 91.59814453 C-66.88888889 88.22222222 -66.88888889 88.22222222 -68 86 C-66.9609375 83.7578125 -66.9609375 83.7578125 -65.375 81.125 C-64.86710937 80.26132813 -64.35921875 79.39765625 -63.8359375 78.5078125 C-61.84469418 75.78785886 -59.70771157 73.98688733 -57 72 C-56.08476563 72.63808594 -55.16953125 73.27617188 -54.2265625 73.93359375 C-53.02608934 74.76829774 -51.8255659 75.6029294 -50.625 76.4375 C-50.02171875 76.85837891 -49.4184375 77.27925781 -48.796875 77.71289062 C-45.49925179 80.0220743 -45.49925179 80.0220743 -42 82 C-44.475 73.585 -44.475 73.585 -47 65 C-42.37985984 62.61027233 -37.99351184 60.50966637 -33 59 C-32.01 58.67 -31.02 58.34 -30 58 C-29.34 58.99 -28.68 59.98 -28 61 C-26.68 60.01 -25.36 59.02 -24 58 C-25.28777344 57.93941406 -26.57554688 57.87882812 -27.90234375 57.81640625 C-29.58074159 57.73201753 -31.25912636 57.6473687 -32.9375 57.5625 C-34.21270508 57.50352539 -34.21270508 57.50352539 -35.51367188 57.44335938 C-36.72700195 57.38051758 -36.72700195 57.38051758 -37.96484375 57.31640625 C-39.08814087 57.26141968 -39.08814087 57.26141968 -40.23413086 57.20532227 C-42 57 -42 57 -43 56 C-43.09997642 53.50941086 -43.13879627 51.05272605 -43.125 48.5625 C-43.13080078 47.52125977 -43.13080078 47.52125977 -43.13671875 46.45898438 C-43.12663994 41.25327988 -43.12663994 41.25327988 -42 39 C-35.73 38.67 -29.46 38.34 -23 38 C-27.95 34.37 -32.9 30.74 -38 27 C-35.09726283 21.19452567 -33.14448237 17.60498041 -29 13 C-24.2778099 13.48185613 -21.29945628 15.69663433 -17.6875 18.5625 C-17.13771484 18.98724609 -16.58792969 19.41199219 -16.02148438 19.84960938 C-14.6748173 20.89181259 -13.33653799 21.94483843 -12 23 C-12.37253906 21.87980469 -12.74507812 20.75960938 -13.12890625 19.60546875 C-13.60723598 18.13296352 -14.08507509 16.66029885 -14.5625 15.1875 C-14.80935547 14.44951172 -15.05621094 13.71152344 -15.31054688 12.95117188 C-17.11328125 7.33984375 -17.11328125 7.33984375 -16 4 C-13.671875 2.83203125 -13.671875 2.83203125 -10.75 1.8125 C-9.31914062 1.29623047 -9.31914062 1.29623047 -7.859375 0.76953125 C-5.08905165 0.02396609 -2.85063531 -0.15085479 0 0 Z M-6.875 41.25 C-8.36637686 44.89558788 -8.68604454 48.15513499 -8 52 C-5.96960499 55.84324769 -3.8819364 58.95120023 0 61 C4.65680013 62.14511479 7.5371517 62.61321709 11.8125 60.3125 C16.25566442 57.08902777 17.59818981 55.60724077 18.9375 50.25 C19.38042992 45.41392845 17.79570961 41.88541111 15 38 C11.43118991 34.73708791 7.88516165 34.47747744 3.21484375 34.6484375 C-1.32538214 35.36910828 -4.01834655 37.82201586 -6.875 41.25 Z M-36.9375 101.6875 C-38.34831968 106.08593782 -38.19902988 109.55701941 -37 114 C-34.49091449 118.27473827 -31.66484486 120.35358417 -27 122 C-21.56939443 121.9030249 -18.14677202 120.48705829 -14 117 C-11.35798975 112.94891762 -10.29763116 109.8162435 -11 105 C-13.30380543 100.73369364 -15.77984903 97.43830945 -20 95 C-27.34127936 93.66769375 -32.48912118 95.51716809 -36.9375 101.6875 Z " fill="#FCE407" transform="translate(129,0)"/>
<path d="M0 0 C2.24480642 5.61201606 3.83348574 11.07136283 5 17 C5.66 17 6.32 17 7 17 C7.10957031 16.443125 7.21914062 15.88625 7.33203125 15.3125 C8.44275248 9.96658969 9.97225526 5.06936184 12 0 C18.06732052 1.03767051 23.4373852 2.33961901 29 5 C28.79503906 5.80824219 28.59007812 6.61648437 28.37890625 7.44921875 C28.10949219 8.51785156 27.84007812 9.58648437 27.5625 10.6875 C27.29566406 11.74324219 27.02882813 12.79898437 26.75390625 13.88671875 C26.10270103 16.57589263 25.54263334 19.28683331 25 22 C29.29 19.03 33.58 16.06 38 13 C44.83076923 18.69230769 44.83076923 18.69230769 46.9375 22.125 C47.56978516 23.11886719 47.56978516 23.11886719 48.21484375 24.1328125 C49 26 49 26 48 29 C45.8336239 30.66577923 43.71005612 32.18549654 41.4375 33.6875 C38.2509375 35.8221875 38.2509375 35.8221875 35 38 C40.94 38.33 46.88 38.66 53 39 C53.82822796 42.31291186 54.13519309 44.6566657 54.125 48 C54.12886719 49.2684375 54.12886719 49.2684375 54.1328125 50.5625 C54 53 54 53 53 57 C44.585 57.495 44.585 57.495 36 58 C40.29 60.97 44.58 63.94 49 67 C48.11424982 71.42875091 47.53785759 73.15224348 45.125 76.6875 C44.61195313 77.45449219 44.09890625 78.22148438 43.5703125 79.01171875 C42 81 42 81 39 83 C34.38 79.7 29.76 76.4 25 73 C25.474375 74.85625 25.94875 76.7125 26.4375 78.625 C27.48783354 82.73500079 28.35155914 86.80716882 29 91 C23.67732294 93.85143414 18.93984955 95.85371324 13 97 C12 96 12 96 11.625 93.625 C11.74875 92.75875 11.8725 91.8925 12 91 C14.5 89.1875 14.5 89.1875 17 88 C16.65986985 82.55791766 13.29703472 79.06331802 10 75 C6.00698009 75.59611435 3.53605889 77.64697387 0.375 80.0625 C-4.78734622 84 -4.78734622 84 -7 84 C-6.54321462 82.14545138 -6.0844894 80.29138051 -5.625 78.4375 C-5.36976562 77.40496094 -5.11453125 76.37242188 -4.8515625 75.30859375 C-3.96290639 71.85587941 -2.97944713 68.42806495 -2 65 C-7.28 63.68 -12.56 62.36 -18 61 C-18.268125 62.299375 -18.53625 63.59875 -18.8125 64.9375 C-19.87444763 69.75064394 -21.35403264 74.35837204 -23 79 C-26.00375365 77.49812318 -26.13261211 75.37277281 -27.1875 72.25 C-27.73470703 70.67992188 -27.73470703 70.67992188 -28.29296875 69.078125 C-29.03992757 65.82617167 -29.16952352 64.11167343 -28 61 C-25.9375 59.1875 -25.9375 59.1875 -24 58 C-25.28777344 57.93941406 -26.57554688 57.87882812 -27.90234375 57.81640625 C-29.58074159 57.73201753 -31.25912636 57.6473687 -32.9375 57.5625 C-34.21270508 57.50352539 -34.21270508 57.50352539 -35.51367188 57.44335938 C-36.72700195 57.38051758 -36.72700195 57.38051758 -37.96484375 57.31640625 C-39.08814087 57.26141968 -39.08814087 57.26141968 -40.23413086 57.20532227 C-42 57 -42 57 -43 56 C-43.09997642 53.50941086 -43.13879627 51.05272605 -43.125 48.5625 C-43.12886719 47.86833984 -43.13273437 47.17417969 -43.13671875 46.45898438 C-43.12663994 41.25327988 -43.12663994 41.25327988 -42 39 C-35.73 38.67 -29.46 38.34 -23 38 C-27.95 34.37 -32.9 30.74 -38 27 C-35.09726283 21.19452567 -33.14448237 17.60498041 -29 13 C-24.2778099 13.48185613 -21.29945628 15.69663433 -17.6875 18.5625 C-17.13771484 18.98724609 -16.58792969 19.41199219 -16.02148438 19.84960938 C-14.6748173 20.89181259 -13.33653799 21.94483843 -12 23 C-12.37253906 21.87980469 -12.74507812 20.75960938 -13.12890625 19.60546875 C-13.60723598 18.13296352 -14.08507509 16.66029885 -14.5625 15.1875 C-14.80935547 14.44951172 -15.05621094 13.71152344 -15.31054688 12.95117188 C-17.11328125 7.33984375 -17.11328125 7.33984375 -16 4 C-13.671875 2.83203125 -13.671875 2.83203125 -10.75 1.8125 C-9.79609375 1.46832031 -8.8421875 1.12414062 -7.859375 0.76953125 C-5.08905165 0.02396609 -2.85063531 -0.15085479 0 0 Z M-6.875 41.25 C-8.36637686 44.89558788 -8.68604454 48.15513499 -8 52 C-5.96960499 55.84324769 -3.8819364 58.95120023 0 61 C4.65680013 62.14511479 7.5371517 62.61321709 11.8125 60.3125 C16.25566442 57.08902777 17.59818981 55.60724077 18.9375 50.25 C19.38042992 45.41392845 17.79570961 41.88541111 15 38 C11.43118991 34.73708791 7.88516165 34.47747744 3.21484375 34.6484375 C-1.32538214 35.36910828 -4.01834655 37.82201586 -6.875 41.25 Z " fill="#1801AA" transform="translate(129,0)"/>
<path d="M0 0 C2.97 0 5.94 0 9 0 C10.72752788 4.68276517 12.45358349 9.3660532 14.17578125 14.05078125 C15.2260737 16.90621313 16.2848043 19.75756303 17.35546875 22.60546875 C17.89107422 24.03826172 17.89107422 24.03826172 18.4375 25.5 C18.74558594 26.3146875 19.05367187 27.129375 19.37109375 27.96875 C20 30 20 30 20 33 C17.36 33 14.72 33 12 33 C11.34 30.69 10.68 28.38 10 26 C6.37 26.33 2.74 26.66 -1 27 C-1.66 28.98 -2.32 30.96 -3 33 C-5.97 33 -8.94 33 -12 33 C-10.75770081 29.18494801 -9.50475117 25.37347296 -8.25 21.5625 C-7.72792969 19.95858398 -7.72792969 19.95858398 -7.1953125 18.32226562 C-5.11681136 12.02902607 -2.80409552 6.00606946 0 0 Z M4 8 C2.515 13.445 2.515 13.445 1 19 C3.31 19 5.62 19 8 19 C7.01 15.37 6.02 11.74 5 8 C4.67 8 4.34 8 4 8 Z " fill="#19079B" transform="translate(164,92)"/>
<path d="M0 0 C15 0 15 0 20 3 C22.46751239 6.70126859 22.30721156 8.62223532 22 13 C21.25 15.375 21.25 15.375 20 17 C17.921875 17.6015625 17.921875 17.6015625 16 18 C16.5775 18.91523437 17.155 19.83046875 17.75 20.7734375 C18.5002341 21.97381205 19.25022133 23.17434092 20 24.375 C20.3815625 24.97828125 20.763125 25.5815625 21.15625 26.203125 C24 30.7734375 24 30.7734375 24 33 C21.21875 33.37109375 21.21875 33.37109375 18 33 C16.09375 30.41015625 16.09375 30.41015625 14.5 27.0625 C13.02142655 23.72796272 13.02142655 23.72796272 11 21 C9.02 20.67 7.04 20.34 5 20 C5 24.29 5 28.58 5 33 C3.35 33 1.7 33 0 33 C0 22.11 0 11.22 0 0 Z M5 5 C4.90176063 6.66429051 4.87026369 8.33281931 4.875 10 C4.87242187 10.9075 4.86984375 11.815 4.8671875 12.75 C4.74826221 14.96966611 4.74826221 14.96966611 6 16 C8.0742997 15.97428296 8.0742997 15.97428296 10.4375 15.6875 C11.24058594 15.60886719 12.04367187 15.53023437 12.87109375 15.44921875 C15.20482915 15.15909117 15.20482915 15.15909117 17 13 C16.67673447 9.40320934 16.67673447 9.40320934 16 6 C10.38515857 3.34085348 10.38515857 3.34085348 5 5 Z " fill="#F6E125" transform="translate(400,92)"/>
<path d="M0 0 C15 0 15 0 20 3 C22.46751239 6.70126859 22.30721156 8.62223532 22 13 C21.25 15.375 21.25 15.375 20 17 C17.921875 17.6015625 17.921875 17.6015625 16 18 C16.5775 18.91523437 17.155 19.83046875 17.75 20.7734375 C18.5002341 21.97381205 19.25022133 23.17434092 20 24.375 C20.3815625 24.97828125 20.763125 25.5815625 21.15625 26.203125 C24 30.7734375 24 30.7734375 24 33 C21.21875 33.37109375 21.21875 33.37109375 18 33 C16.09375 30.41015625 16.09375 30.41015625 14.5 27.0625 C13.02142655 23.72796272 13.02142655 23.72796272 11 21 C9.02 20.67 7.04 20.34 5 20 C5 24.29 5 28.58 5 33 C3.35 33 1.7 33 0 33 C0 22.11 0 11.22 0 0 Z M6 4 C4.71387324 5.05978933 4.71387324 5.05978933 4.90234375 7.50390625 C4.91394531 8.51324219 4.92554688 9.52257812 4.9375 10.5625 C4.94652344 11.57441406 4.95554687 12.58632812 4.96484375 13.62890625 C4.97644531 14.41136719 4.98804688 15.19382812 5 16 C10.4159661 16.35144861 10.4159661 16.35144861 15.5 14.875 C17.27259608 12.99568302 17.27259608 12.99568302 17.375 9.9375 C17.28930236 6.88138759 17.28930236 6.88138759 15 5 C12.83324075 4.50197707 12.83324075 4.50197707 10.4375 4.3125 C9.63183594 4.22613281 8.82617188 4.13976562 7.99609375 4.05078125 C7.33738281 4.03402344 6.67867188 4.01726562 6 4 Z " fill="#FCE40A" transform="translate(293,92)"/>
<path d="M0 0 C1.65 0 3.3 0 5 0 C6.7132732 4.37659283 8.42215493 8.75486459 10.12695312 13.13476562 C10.7077731 14.62514709 11.28979968 16.11505891 11.87304688 17.60449219 C12.71019528 19.74292231 13.54301894 21.88299257 14.375 24.0234375 C14.63748535 24.69120209 14.8999707 25.35896667 15.17041016 26.04696655 C17 30.77225659 17 30.77225659 17 33 C15.35 33 13.7 33 12 33 C10.68 30.03 9.36 27.06 8 24 C4.04 23.67 0.08 23.34 -4 23 C-4.99 26.3 -5.98 29.6 -7 33 C-9.475 33.495 -9.475 33.495 -12 34 C-11.39418377 29.44884328 -10.19603012 25.54867316 -8.49609375 21.2890625 C-8.2533522 20.67606293 -8.01061066 20.06306335 -7.76051331 19.43148804 C-6.99171749 17.49373226 -6.21476724 15.55937111 -5.4375 13.625 C-4.91156482 12.30360203 -4.3861688 10.98198933 -3.86132812 9.66015625 C-2.58044219 6.43759822 -1.29222716 3.2180297 0 0 Z M2 7 C1.3291288 8.6232687 0.66342971 10.24867578 0 11.875 C-0.37125 12.77992187 -0.7425 13.68484375 -1.125 14.6171875 C-2.11490226 16.88983858 -2.11490226 16.88983858 -2 19 C0.64 19 3.28 19 6 19 C5.40075776 14.80530429 4.42500059 10.99000166 3 7 C2.67 7 2.34 7 2 7 Z " fill="#F8E21F" transform="translate(380,92)"/>
<path d="M0 0 C6.27 0 12.54 0 19 0 C19 1.65 19 3.3 19 5 C14.71 5 10.42 5 6 5 C5.67 7.97 5.34 10.94 5 14 C9.62 14 14.24 14 19 14 C18.67 15.65 18.34 17.3 18 19 C13.71 18.67 9.42 18.34 5 18 C5 21.63 5 25.26 5 29 C9.62 29 14.24 29 19 29 C19 30.32 19 31.64 19 33 C12.73 33 6.46 33 0 33 C0 22.11 0 11.22 0 0 Z " fill="#FCE408" transform="translate(321,92)"/>
<path d="M0 0 C0.96808594 -0.00257812 1.93617188 -0.00515625 2.93359375 -0.0078125 C5.5625 0.125 5.5625 0.125 8.5625 1.125 C8.2325 2.775 7.9025 4.425 7.5625 6.125 C7.046875 5.96 6.53125 5.795 6 5.625 C2.78567332 4.96565094 -0.16596085 4.94324783 -3.4375 5.125 C-5.72478734 6.96383881 -5.72478734 6.96383881 -5.5625 9.75 C-5.52125 10.53375 -5.48 11.3175 -5.4375 12.125 C-4.84582031 12.29515625 -4.25414062 12.4653125 -3.64453125 12.640625 C1.1782329 14.1197109 4.86105998 15.53922998 8.5625 19.125 C10.11274464 22.22548928 9.85242015 24.70394218 9.5625 28.125 C7.42570715 31.51439556 6.3850233 32.85082557 2.5625 34.125 C0.73109259 34.21877689 -1.10369987 34.25492957 -2.9375 34.25 C-4.37609375 34.25386719 -4.37609375 34.25386719 -5.84375 34.2578125 C-8.4375 34.125 -8.4375 34.125 -11.4375 33.125 C-11.4375 31.475 -11.4375 29.825 -11.4375 28.125 C-10.68984375 28.22039062 -9.9421875 28.31578125 -9.171875 28.4140625 C-7.69460937 28.58035156 -7.69460937 28.58035156 -6.1875 28.75 C-5.21296875 28.86601563 -4.2384375 28.98203125 -3.234375 29.1015625 C-0.30320607 29.12612537 1.10778964 28.6562717 3.5625 27.125 C3.5625 25.475 3.5625 23.825 3.5625 22.125 C2.73105469 21.74988281 1.89960938 21.37476562 1.04296875 20.98828125 C-0.58705078 20.22064453 -0.58705078 20.22064453 -2.25 19.4375 C-3.32894531 18.93863281 -4.40789062 18.43976563 -5.51953125 17.92578125 C-8.72505283 15.94754102 -9.93573534 14.54774984 -11.4375 11.125 C-11.31430255 7.55227403 -11.20440713 5.12531365 -9 2.25 C-5.90298623 0.02015009 -3.77598473 -0.01002918 0 0 Z " fill="#F9E119" transform="translate(224.4375,91.875)"/>
<path d="M0 0 C6.27 0 12.54 0 19 0 C19 1.32 19 2.64 19 4 C14.05 4 9.1 4 4 4 C4 7.3 4 10.6 4 14 C8.62 14 13.24 14 18 14 C18 15.32 18 16.64 18 18 C12.97703996 19.13016601 9.02125926 18.77916092 4 18 C4 21.63 4 25.26 4 29 C8.95 29 13.9 29 19 29 C19 30.32 19 31.64 19 33 C12.73 33 6.46 33 0 33 C0 22.11 0 11.22 0 0 Z " fill="#FBE40C" transform="translate(240,92)"/>
<path d="M0 0 C1.15371094 -0.02578125 2.30742187 -0.0515625 3.49609375 -0.078125 C6.5625 0.25 6.5625 0.25 8.47265625 1.765625 C8.83230469 2.25546875 9.19195312 2.7453125 9.5625 3.25 C8.5725 4.24 7.5825 5.23 6.5625 6.25 C5.5725 5.92 4.5825 5.59 3.5625 5.25 C-0.49507152 4.87429893 -2.71779125 4.81817475 -6.25 6.9375 C-9.16603387 10.02016438 -10.37103345 12.10352138 -10.50390625 16.39453125 C-10.27459236 20.58472149 -9.7669568 22.79817353 -7.25 26.25 C-3.05870191 29.23047864 -0.09599825 29.46499051 4.9375 28.8125 C5.80375 28.626875 6.67 28.44125 7.5625 28.25 C7.5625 29.9 7.5625 31.55 7.5625 33.25 C2.1340082 35.05949727 -3.4006261 34.92895797 -8.8125 33.125 C-12.6506813 30.38344193 -14.79934151 27.32401509 -16.1875 22.8125 C-16.81866254 16.34308394 -16.61570293 11.00580058 -13.4375 5.25 C-8.92872159 0.961162 -6.13776412 0.08211056 0 0 Z " fill="#F8E221" transform="translate(279.4375,91.75)"/>
<path d="M0 0 C2.99227132 2.09458992 4.27195478 4.91506129 5.859375 8.1015625 C6.931875 10.2053125 8.004375 12.3090625 9.109375 14.4765625 C11.749375 9.8565625 14.389375 5.2365625 17.109375 0.4765625 C18.759375 0.4765625 20.409375 0.4765625 22.109375 0.4765625 C21.42755768 4.04558156 19.94469844 6.82102348 18.171875 9.9765625 C17.14790058 11.80814329 16.12683553 13.64135519 15.109375 15.4765625 C14.72910156 16.10046875 14.34882813 16.724375 13.95703125 17.3671875 C12.71546861 20.45679039 12.66835287 23.41496089 12.484375 26.7265625 C12.40960938 27.98984375 12.33484375 29.253125 12.2578125 30.5546875 C12.20882813 31.51890625 12.15984375 32.483125 12.109375 33.4765625 C10.459375 33.4765625 8.809375 33.4765625 7.109375 33.4765625 C7.15320313 32.74695313 7.19703125 32.01734375 7.2421875 31.265625 C7.21557059 20.48577585 2.59687896 13.09655762 -2.98852539 4.1496582 C-3.890625 2.4765625 -3.890625 2.4765625 -3.890625 0.4765625 C-1.890625 -0.5234375 -1.890625 -0.5234375 0 0 Z " fill="#FBE313" transform="translate(427.890625,91.5234375)"/>
<path d="M0 0 C2.64 0 5.28 0 8 0 C8 10.89 8 21.78 8 33 C5.36 33 2.72 33 0 33 C0 22.11 0 11.22 0 0 Z " fill="#1A089D" transform="translate(188,92)"/>
<path d="M0 0 C8.25 0 16.5 0 25 0 C25 1.32 25 2.64 25 4 C21.7 4 18.4 4 15 4 C15 13.57 15 23.14 15 33 C13.35 33 11.7 33 10 33 C10 23.43 10 13.86 10 4 C6.37 4 2.74 4 -1 4 C-0.67 2.68 -0.34 1.36 0 0 Z " fill="#F9E21B" transform="translate(343,92)"/>
<path d="M0 0 C0.33 0.66 0.66 1.32 1 2 C1.91523437 1.97679687 2.83046875 1.95359375 3.7734375 1.9296875 C4.96195313 1.91164062 6.15046875 1.89359375 7.375 1.875 C8.55835937 1.85179687 9.74171875 1.82859375 10.9609375 1.8046875 C14 2 14 2 16 4 C16.99 4 17.98 4 19 4 C19 3.01 19 2.02 19 1 C19.99 1.5259375 19.99 1.5259375 21 2.0625 C25.86398687 3.5824959 30.18051255 2.60649582 35 1 C35 1.99 35 2.98 35 4 C30.59085217 5.10228696 26.51617599 5.07654536 22 5 C21.67 7.31 21.34 9.62 21 12 C20.34 12 19.68 12 19 12 C18.34 15.3 17.68 18.6 17 22 C17.99 22.33 18.98 22.66 20 23 C16.25 26 16.25 26 14 26 C14.45678538 24.14545138 14.9155106 22.29138051 15.375 20.4375 C15.75785156 18.88869141 15.75785156 18.88869141 16.1484375 17.30859375 C17.03709361 13.85587941 18.02055287 10.42806495 19 7 C13.72 5.68 8.44 4.36 3 3 C2.731875 4.299375 2.46375 5.59875 2.1875 6.9375 C1.12555237 11.75064394 -0.35403264 16.35837204 -2 21 C-5.00375365 19.49812318 -5.13261211 17.37277281 -6.1875 14.25 C-6.73470703 12.67992188 -6.73470703 12.67992188 -7.29296875 11.078125 C-8.02820789 7.8771944 -8.01745064 6.09587923 -7 3 C-4.46916729 0.55352838 -3.5747073 0 0 0 Z " fill="#1C049E" transform="translate(108,58)"/>
<path d="M0 0 C4.29 0 8.58 0 13 0 C13 0.66 13 1.32 13 2 C10.36 2.33 7.72 2.66 5 3 C5 6.3 5 9.6 5 13 C7.31 13 9.62 13 12 13 C12 13.66 12 14.32 12 15 C12.66 15 13.32 15 14 15 C14 16.65 14 18.3 14 20 C13.34 20 12.68 20 12 20 C12 19.34 12 18.68 12 18 C9.36 18 6.72 18 4 18 C4 21.96 4 25.92 4 30 C2.68 30 1.36 30 0 30 C0 20.1 0 10.2 0 0 Z " fill="#FDE409" transform="translate(401,94)"/>
<path d="M0 0 C15 0 15 0 20 3 C22.44897847 6.67346771 22.31537716 8.66356399 22 13 C21.34 13.66 20.68 14.32 20 15 C20 11.7 20 8.4 20 5 C19.34 5 18.68 5 18 5 C18 7.97 18 10.94 18 14 C17.34 13.67 16.68 13.34 16 13 C16 11.02 16 9.04 16 7 C13.525 6.01 13.525 6.01 11 5 C11 4.67 11 4.34 11 4 C12.98 4 14.96 4 17 4 C17 3.34 17 2.68 17 2 C12.05 2 7.1 2 2 2 C2 11.9 2 21.8 2 32 C2.66 32 3.32 32 4 32 C4 28.37 4 24.74 4 21 C4.33 21 4.66 21 5 21 C5 24.96 5 28.92 5 33 C3.35 33 1.7 33 0 33 C0 22.11 0 11.22 0 0 Z " fill="#F4E036" transform="translate(293,92)"/>
<path d="M0 0 C6.27 0 12.54 0 19 0 C19 1.65 19 3.3 19 5 C17.68 4.67 16.36 4.34 15 4 C15 3.34 15 2.68 15 2 C10.71 2 6.42 2 2 2 C2 11.9 2 21.8 2 32 C7.28 32 12.56 32 18 32 C18 31.34 18 30.68 18 30 C14.37 30 10.74 30 7 30 C7 29.67 7 29.34 7 29 C10.96 29 14.92 29 19 29 C19 30.32 19 31.64 19 33 C12.73 33 6.46 33 0 33 C0 22.11 0 11.22 0 0 Z " fill="#F4E036" transform="translate(321,92)"/>
<path d="M0 0 C5.28 0 10.56 0 16 0 C16 0.33 16 0.66 16 1 C11.05 1 6.1 1 1 1 C1.33 10.24 1.66 19.48 2 29 C2.33 25.7 2.66 22.4 3 19 C3.33 19 3.66 19 4 19 C4 22.3 4 25.6 4 29 C8.95 29 13.9 29 19 29 C19 30.32 19 31.64 19 33 C12.73 33 6.46 33 0 33 C0 22.11 0 11.22 0 0 Z " fill="#F7E129" transform="translate(240,92)"/>
<path d="M0 0 C0.33 0 0.66 0 1 0 C1.33 4.29 1.66 8.58 2 13 C12.56717571 13.32494128 12.56717571 13.32494128 23 12 C23.66 11.34 24.32 10.68 25 10 C25.99 10 26.98 10 28 10 C27.814375 11.11375 27.62875 12.2275 27.4375 13.375 C26.68319343 16.82568861 26.68319343 16.82568861 28 19 C25.69 19.33 23.38 19.66 21 20 C21 19.01 21 18.02 21 17 C20.39937744 16.97494385 19.79875488 16.9498877 19.17993164 16.92407227 C16.47388563 16.8084472 13.76821717 16.68557064 11.0625 16.5625 C10.11697266 16.52318359 9.17144531 16.48386719 8.19726562 16.44335938 C7.29814453 16.40146484 6.39902344 16.35957031 5.47265625 16.31640625 C4.64000244 16.27974854 3.80734863 16.24309082 2.94946289 16.20532227 C1 16 1 16 0 15 C-0.07313567 12.46950598 -0.09247527 9.96695163 -0.0625 7.4375 C-0.05798828 6.72658203 -0.05347656 6.01566406 -0.04882812 5.28320312 C-0.03700864 3.52209987 -0.01907263 1.76103964 0 0 Z " fill="#1804A0" transform="translate(86,41)"/>
<path d="M0 0 C0.99 0 1.98 0 3 0 C3 1.32 3 2.64 3 4 C3.66 4 4.32 4 5 4 C5.33 6.64 5.66 9.28 6 12 C6.99 12 7.98 12 9 12 C9 11.34 9 10.68 9 10 C9.66 10 10.32 10 11 10 C11 7.36 11 4.72 11 2 C13.12508244 5.18762365 13.5020163 7.26512223 14 11 C8.67732294 13.85143414 3.93984955 15.85371324 -2 17 C-3 16 -3 16 -3.375 13.625 C-3.25125 12.75875 -3.1275 11.8925 -3 11 C-0.5 9.1875 -0.5 9.1875 2 8 C1.47731534 5.23723823 0.89130413 2.6739124 0 0 Z " fill="#1803A4" transform="translate(144,80)"/>
<path d="M0 0 C1.2375 0.5259375 1.2375 0.5259375 2.5 1.0625 C7.67532465 2.44874767 11.89760629 1.7007979 17 0 C17 0.99 17 1.98 17 3 C12.59085217 4.10228696 8.51617599 4.07654536 4 4 C3.67 6.31 3.34 8.62 3 11 C2.34 11 1.68 11 1 11 C0.34 14.3 -0.32 17.6 -1 21 C-0.01 21.33 0.98 21.66 2 22 C-1.75 25 -1.75 25 -4 25 C-3.54321462 23.14545138 -3.0844894 21.29138051 -2.625 19.4375 C-2.36976562 18.40496094 -2.11453125 17.37242188 -1.8515625 16.30859375 C-0.96290639 12.85587941 0.02055287 9.42806495 1 6 C-4.28 4.68 -9.56 3.36 -15 2 C-15 1.67 -15 1.34 -15 1 C-13.20866022 0.94608007 -11.41686101 0.90724429 -9.625 0.875 C-8.62726563 0.85179687 -7.62953125 0.82859375 -6.6015625 0.8046875 C-4 1 -4 1 -2 3 C-1.01 3 -0.02 3 1 3 C0.67 2.01 0.34 1.02 0 0 Z " fill="#26107B" transform="translate(126,59)"/>
<path d="M0 0 C1.98 0.99 3.96 1.98 6 3 C5.4361068 6.88536171 4.33310556 9.45224086 2.125 12.6875 C1.61195313 13.45449219 1.09890625 14.22148438 0.5703125 15.01171875 C-1 17 -1 17 -4 19 C-6.31 17.35 -8.62 15.7 -11 14 C-9 13 -9 13 -5.875 13.9375 C-4.451875 14.4634375 -4.451875 14.4634375 -3 15 C-2.54625 14.175 -2.0925 13.35 -1.625 12.5 C-1.08875 11.675 -0.5525 10.85 0 10 C0.66 10 1.32 10 2 10 C2 9.01 2 8.02 2 7 C0.35 7 -1.3 7 -3 7 C-3.33 5.68 -3.66 4.36 -4 3 C-3.34 2.67 -2.68 2.34 -2 2 C-1.34 2.33 -0.68 2.66 0 3 C0 2.01 0 1.02 0 0 Z " fill="#1701A6" transform="translate(172,64)"/>
<path d="M0 0 C2.78140172 1.88215154 3.78360025 3.94201058 5.328125 6.90625 C5.84890625 7.8859375 6.3696875 8.865625 6.90625 9.875 C8.078125 12.40625 8.078125 12.40625 8.078125 14.40625 C7.088125 14.40625 6.098125 14.40625 5.078125 14.40625 C5.408125 16.05625 5.738125 17.70625 6.078125 19.40625 C3.41164129 16.07519651 1.4111569 12.53427152 -0.609375 8.78125 C-1.23199219 7.63398437 -1.85460937 6.48671875 -2.49609375 5.3046875 C-3.921875 2.40625 -3.921875 2.40625 -3.921875 0.40625 C-1.921875 -0.59375 -1.921875 -0.59375 0 0 Z " fill="#F8E220" transform="translate(427.921875,91.59375)"/>
<path d="M0 0 C0.66 0.33 1.32 0.66 2 1 C1.835 1.495 1.67 1.99 1.5 2.5 C0.40843615 7.95781927 0.21839141 12.15430023 3 17 C3.66 17.99 4.32 18.98 5 20 C3.68 19.67 2.36 19.34 1 19 C1 18.34 1 17.68 1 17 C0.566875 17.495 0.13375 17.99 -0.3125 18.5 C-2 20 -2 20 -5 20 C-5 17.03 -5 14.06 -5 11 C-4.34 11 -3.68 11 -3 11 C-2.67 9.35 -2.34 7.7 -2 6 C-2.99 6 -3.98 6 -5 6 C-5 5.34 -5 4.68 -5 4 C-4.360625 3.71125 -3.72125 3.4225 -3.0625 3.125 C-0.84793921 2.17176549 -0.84793921 2.17176549 0 0 Z " fill="#19069A" transform="translate(121,39)"/>
<path d="M0 0 C1.65 0 3.3 0 5 0 C4.31238981 3.65564909 2.74550455 6.51867272 0.9375 9.75 C0.38964844 10.73484375 -0.15820312 11.7196875 -0.72265625 12.734375 C-1.35494141 13.85585937 -1.35494141 13.85585937 -2 15 C-3.32 14.34 -4.64 13.68 -6 13 C-4.58707905 8.1725201 -2.57025846 4.2837641 0 0 Z " fill="#F6E61C" transform="translate(445,92)"/>
<path d="M0 0 C2.71486934 3.97610786 2.22440753 8.13901977 2.125 12.75 C2.11597656 13.54277344 2.10695313 14.33554688 2.09765625 15.15234375 C2.07417012 17.10169281 2.03830137 19.05088575 2 21 C0.68 21 -0.64 21 -2 21 C-2.12813117 14.30870551 -2.0835807 7.62188208 -1 1 C-0.67 0.67 -0.34 0.34 0 0 Z " fill="#FEE306" transform="translate(355,103)"/>
<path d="M0 0 C8.25 0 16.5 0 25 0 C25 1.32 25 2.64 25 4 C24.43829102 3.84152588 23.87658203 3.68305176 23.29785156 3.51977539 C20.90325571 2.97811638 18.68561447 2.79358526 16.234375 2.68359375 C15.34492188 2.64169922 14.45546875 2.59980469 13.5390625 2.55664062 C12.61867188 2.51732422 11.69828125 2.47800781 10.75 2.4375 C9.81414062 2.39431641 8.87828125 2.35113281 7.9140625 2.30664062 C5.60951359 2.2008195 3.30486161 2.09873443 1 2 C1 2.66 1 3.32 1 4 C0.34 4 -0.32 4 -1 4 C-0.67 2.68 -0.34 1.36 0 0 Z " fill="#F6E334" transform="translate(343,92)"/>
<path d="M0 0 C1.60568666 0.28317926 3.20952047 0.57687791 4.8125 0.875 C6.15248047 1.11863281 6.15248047 1.11863281 7.51953125 1.3671875 C10 2 10 2 13 4 C11.948125 3.95875 10.89625 3.9175 9.8125 3.875 C6.21454972 3.99296558 4.12735936 4.30229063 1 6 C-1.29013653 9.4352048 -1.17842973 10.985331 -1 15 C-2.32 15.33 -3.64 15.66 -5 16 C-4.54548816 14.26982492 -4.08621143 12.54090123 -3.625 10.8125 C-3.36976563 9.84957031 -3.11453125 8.88664063 -2.8515625 7.89453125 C-2.05233704 5.17789793 -1.0968638 2.60862825 0 0 Z " fill="#1B0892" transform="translate(141,0)"/>
<path d="M0 0 C0.66 0 1.32 0 2 0 C3.58539579 10.80481694 3.58539579 10.80481694 1.5 15.0625 C-3.10966845 18.63499305 -8.17493018 20.62010414 -14 21 C-16.875 20.0625 -16.875 20.0625 -19 19 C-18.67 18.34 -18.34 17.68 -18 17 C-16.845 17.268125 -15.69 17.53625 -14.5 17.8125 C-9.92873287 18.39000884 -7.31485424 17.08440549 -3.6328125 14.44921875 C-1.34049365 12.41464867 -0.56275423 11.02480397 0 8 C0.13053645 5.3089408 0.09148204 2.69872015 0 0 Z " fill="#F7E41E" transform="translate(117,103)"/>
<path d="M0 0 C0.969375 0.165 1.93875 0.33 2.9375 0.5 C7.29487763 1.13396273 11.60630704 1.0896672 16 1 C16 1.99 16 2.98 16 4 C12.57767028 5.14077657 9.91326783 5.09815117 6.3125 5.0625 C4.54326172 5.04896484 4.54326172 5.04896484 2.73828125 5.03515625 C1.83464844 5.02355469 0.93101562 5.01195313 0 5 C0 3.35 0 1.7 0 0 Z " fill="#FAE115" transform="translate(213,120)"/>
<path d="M0 0 C0.66 0.33 1.32 0.66 2 1 C2.027193 2.58323688 2.04648306 4.16661062 2.0625 5.75 C2.07410156 6.63171875 2.08570313 7.5134375 2.09765625 8.421875 C2 11 2 11 1 15 C-7.415 15.495 -7.415 15.495 -16 16 C-15.34 16.66 -14.68 17.32 -14 18 C-15.32 17.67 -16.64 17.34 -18 17 C-18.33 15.68 -18.66 14.36 -19 13 C-12.73 13.33 -6.46 13.66 0 14 C0 9.38 0 4.76 0 0 Z " fill="#180783" transform="translate(181,42)"/>
<path d="M0 0 C2.79192205 -0.05380578 5.5828141 -0.09357669 8.375 -0.125 C9.1690625 -0.14175781 9.963125 -0.15851563 10.78125 -0.17578125 C12.85492015 -0.19335473 14.92883241 -0.10335168 17 0 C17.66 0.66 18.32 1.32 19 2 C13.06 2.33 7.12 2.66 1 3 C-0.28446919 5.56893838 -0.32977144 7.76576337 -0.5625 10.625 C-0.64628906 11.62789062 -0.73007812 12.63078125 -0.81640625 13.6640625 C-0.87699219 14.43492188 -0.93757813 15.20578125 -1 16 C-1.33 16 -1.66 16 -2 16 C-2.05423638 14.08364783 -2.09289963 12.16685075 -2.125 10.25 C-2.14820313 9.18265625 -2.17140625 8.1153125 -2.1953125 7.015625 C-2.00487687 4.07529894 -1.52670104 2.47638122 0 0 Z " fill="#F9EA1F" transform="translate(58,98)"/>
<path d="M0 0 C1.65 1.65 3.3 3.3 5 5 C2.03 4.505 2.03 4.505 -1 4 C-1.33 4.66 -1.66 5.32 -2 6 C-2.99 6 -3.98 6 -5 6 C-5.66 7.65 -6.32 9.3 -7 11 C-9.64 11.33 -12.28 11.66 -15 12 C-10.58990583 7.14889642 -5.41995647 3.651893 0 0 Z " fill="#1B0A93" transform="translate(167,13)"/>
<path d="M0 0 C2 0 2 0 3.625 1.5 C4.07875 1.995 4.5325 2.49 5 3 C5.33 2.01 5.66 1.02 6 0 C6.83878455 1.28813342 7.67086783 2.58063256 8.5 3.875 C8.9640625 4.59429687 9.428125 5.31359375 9.90625 6.0546875 C11 8 11 8 11 10 C9.02 10 7.04 10 5 10 C3.35 6.7 1.7 3.4 0 0 Z " fill="#F8DF28" transform="translate(306,115)"/>
<path d="M0 0 C6.93 0.33 13.86 0.66 21 1 C20.67 2.32 20.34 3.64 20 5 C15.25 6.125 15.25 6.125 13 5 C13 4.01 13 3.02 13 2 C12.15695313 2.26103516 12.15695313 2.26103516 11.296875 2.52734375 C8.75443245 3.05053346 6.81547663 2.90204838 4.25 2.5625 C3.05117187 2.40974609 3.05117187 2.40974609 1.828125 2.25390625 C1.22484375 2.17011719 0.6215625 2.08632813 0 2 C0 1.34 0 0.68 0 0 Z " fill="#1E0AA2" transform="translate(161,38)"/>
<path d="M0 0 C3.96 0 7.92 0 12 0 C12 1.32 12 2.64 12 4 C7.66726186 4.92844389 4.33273814 4.92844389 0 4 C0 2.68 0 1.36 0 0 Z " fill="#FCE615" transform="translate(246,106)"/>
<path d="M0 0 C2 2 2 2 2.23046875 4.3125 C2.21628906 5.199375 2.20210937 6.08625 2.1875 7 C2.18105469 7.886875 2.17460937 8.77375 2.16796875 9.6875 C2 12 2 12 1 14 C-0.65 13.67 -2.3 13.34 -4 13 C-3.52511102 11.01980257 -3.04497141 9.04086365 -2.5625 7.0625 C-2.29566406 5.96035156 -2.02882812 4.85820313 -1.75390625 3.72265625 C-1 1 -1 1 0 0 Z " fill="#1802A6" transform="translate(163,97)"/>
<path d="M0 0 C0.66 0 1.32 0 2 0 C2.33 2.97 2.66 5.94 3 9 C4.32 9.33 5.64 9.66 7 10 C7.33 8.35 7.66 6.7 8 5 C9.15957207 8.47871621 8.77456651 9.34219645 7.5625 12.6875 C7.27503906 13.49574219 6.98757812 14.30398437 6.69140625 15.13671875 C6.46324219 15.75160156 6.23507813 16.36648437 6 17 C4 16 4 16 2.9296875 13.41796875 C2.58164063 12.35191406 2.23359375 11.28585938 1.875 10.1875 C1.52179688 9.12917969 1.16859375 8.07085937 0.8046875 6.98046875 C0 4 0 4 0 0 Z " fill="#36195C" transform="translate(100,62)"/>
<path d="M0 0 C4.23830976 2.82553984 3.97715348 5.12180888 5 10 C3.02 10 1.04 10 -1 10 C-1.66 7.36 -2.32 4.72 -3 2 C-2.01 1.34 -1.02 0.68 0 0 Z " fill="#1602AB" transform="translate(178,114)"/>
<path d="M0 0 C2.98035902 0.22336738 3.91974325 0.91205398 5.95703125 3.14453125 C6.87548828 4.46517578 6.87548828 4.46517578 7.8125 5.8125 C8.43769531 6.68519531 9.06289062 7.55789062 9.70703125 8.45703125 C11 11 11 11 10.69921875 13.32421875 C10.46847656 13.87722656 10.23773438 14.43023437 10 15 C9.67 15 9.34 15 9 15 C8.34 12.36 7.68 9.72 7 7 C5.5459375 6.814375 5.5459375 6.814375 4.0625 6.625 C3.051875 6.41875 2.04125 6.2125 1 6 C0.67 5.34 0.34 4.68 0 4 C0.66 4 1.32 4 2 4 C2 3.34 2 2.68 2 2 C1.01 1.67 0.02 1.34 -1 1 C-0.67 0.67 -0.34 0.34 0 0 Z " fill="#EBD240" transform="translate(136,74)"/>
<path d="M0 0 C0.66 0.33 1.32 0.66 2 1 C2 1.99 2 2.98 2 4 C2.61875 4.0825 3.2375 4.165 3.875 4.25 C6 5 6 5 7.25 7.0625 C7.4975 7.701875 7.745 8.34125 8 9 C5.50638429 7.79618552 3.31856917 6.54571278 1 5 C1.33 7.97 1.66 10.94 2 14 C1.67 13.01 1.34 12.02 1 11 C-1.00016466 9.79117904 -1.00016466 9.79117904 -3 9 C-2.625 6.0625 -2.625 6.0625 -2 3 C-1.34 2.67 -0.68 2.34 0 2 C0 1.34 0 0.68 0 0 Z " fill="#17058E" transform="translate(153,68)"/>
<path d="M0 0 C1.85776765 3.13498292 2.20140476 5.37471432 2 9 C1.01 8.67 0.02 8.34 -1 8 C-1 7.34 -1 6.68 -1 6 C-1.99 6 -2.98 6 -4 6 C-4.33 5.34 -4.66 4.68 -5 4 C-7.52733235 3.34444881 -7.52733235 3.34444881 -10 3 C-10 2.67 -10 2.34 -10 2 C-8.7090864 1.66376204 -7.41723903 1.33110751 -6.125 1 C-5.40570313 0.814375 -4.68640625 0.62875 -3.9453125 0.4375 C-2 0 -2 0 0 0 Z " fill="#FCE119" transform="translate(309,109)"/>
<path d="M0 0 C0.66 0 1.32 0 2 0 C2 0.66 2 1.32 2 2 C3.32 2.33 4.64 2.66 6 3 C5.01 3.33 4.02 3.66 3 4 C3.33 7.3 3.66 10.6 4 14 C3.01 14.33 2.02 14.66 1 15 C1 15.66 1 16.32 1 17 C-0.32 17.33 -1.64 17.66 -3 18 C-2.525625 17.34 -2.05125 16.68 -1.5625 16 C1.12660505 10.8369183 1.5837501 5.63111147 0 0 Z " fill="#1A0891" transform="translate(146,41)"/>
<path d="M0 0 C2.97 0 5.94 0 9 0 C8.67 1.65 8.34 3.3 8 5 C3.71 4.67 -0.58 4.34 -5 4 C-5 7.63 -5 11.26 -5 15 C-5.33 15 -5.66 15 -6 15 C-6 11.04 -6 7.08 -6 3 C-1.71 3 2.58 3 7 3 C7 2.34 7 1.68 7 1 C4.69 1 2.38 1 0 1 C0 0.67 0 0.34 0 0 Z " fill="#FBE721" transform="translate(331,106)"/>
<path d="M0 0 C1.3125 2.125 1.3125 2.125 2 4 C0.68 3.34 -0.64 2.68 -2 2 C-2.33 2.99 -2.66 3.98 -3 5 C-5.475 4.01 -5.475 4.01 -8 3 C-7.01 2.67 -6.02 2.34 -5 2 C-5 1.34 -5 0.68 -5 0 C-9.29 0 -13.58 0 -18 0 C-18 -0.33 -18 -0.66 -18 -1 C-15.93906592 -1.223293 -13.8761161 -1.42802887 -11.8125 -1.625 C-10.66394531 -1.74101563 -9.51539063 -1.85703125 -8.33203125 -1.9765625 C-4.93170605 -2.00048038 -2.97582572 -1.59573263 0 0 Z " fill="#F8E223" transform="translate(419,94)"/>
<path d="M0 0 C0.66 0 1.32 0 2 0 C1.67 1.98 1.34 3.96 1 6 C3.31 4.35 5.62 2.7 8 1 C8.66 1.33 9.32 1.66 10 2 C9 5 9 5 7.22265625 6.1328125 C6.50980469 6.46023437 5.79695313 6.78765625 5.0625 7.125 C4.35222656 7.45757812 3.64195313 7.79015625 2.91015625 8.1328125 C2.27980469 8.41898438 1.64945312 8.70515625 1 9 C0.01 9.495 0.01 9.495 -1 10 C-1.33 8.35 -1.66 6.7 -2 5 C-1.34 5 -0.68 5 0 5 C0 3.35 0 1.7 0 0 Z " fill="#E8D028" transform="translate(121,78)"/>
<path d="M0 0 C0.66 0.33 1.32 0.66 2 1 C2 1.99 2 2.98 2 4 C2.3062434 5.33981486 2.63451555 6.67511887 3 8 C2.29875 7.7525 1.5975 7.505 0.875 7.25 C-3.14531402 6.90040748 -4.88338362 8.60817813 -8 11 C-8 9.35 -8 7.7 -8 6 C-6.35 6 -4.7 6 -3 6 C-2.814375 5.071875 -2.814375 5.071875 -2.625 4.125 C-2 2 -2 2 0 0 Z " fill="#230B87" transform="translate(138,68)"/>
<path d="M0 0 C0.33 0.99 0.66 1.98 1 3 C0.34 3 -0.32 3 -1 3 C-0.690625 3.9075 -0.38125 4.815 -0.0625 5.75 C0.7272263 8.16563338 1.42949297 10.52780285 2 13 C-1.65316671 11.75023244 -2.78065836 11.32901247 -5 8 C-3.35 5.36 -1.7 2.72 0 0 Z " fill="#F6E41F" transform="translate(66,78)"/>
<path d="M0 0 C0.99 0 1.98 0 3 0 C1.44499019 3.81684226 -1.03595495 6.19195732 -4 9 C-6.31 7.35 -8.62 5.7 -11 4 C-9 3 -9 3 -5.875 3.9375 C-4.92625 4.288125 -3.9775 4.63875 -3 5 C-2.3503125 3.7625 -2.3503125 3.7625 -1.6875 2.5 C-1.130625 1.675 -0.57375 0.85 0 0 Z " fill="#17078A" transform="translate(172,74)"/>
<path d="M0 0 C2.18975773 3.28463659 2.99806563 6.20696275 4 10 C2.35 10 0.7 10 -1 10 C-2.0625 8.1875 -2.0625 8.1875 -3 6 C-2.67 5.01 -2.34 4.02 -2 3 C-1.34 3.33 -0.68 3.66 0 4 C0 2.68 0 1.36 0 0 Z " fill="#F6E026" transform="translate(393,115)"/>
<path d="M0 0 C5.53846154 -0.36923077 5.53846154 -0.36923077 7.875 1.5 C8.24625 1.995 8.6175 2.49 9 3 C8.01 3.99 7.02 4.98 6 6 C3.69 5.01 1.38 4.02 -1 3 C-0.67 2.01 -0.34 1.02 0 0 Z " fill="#F8E220" transform="translate(280,92)"/>
<path d="M0 0 C0.33 1.32 0.66 2.64 1 4 C-4.5808739 7.6111537 -9.31141408 9.31850409 -16 9 C-15.67 8.01 -15.34 7.02 -15 6 C-14.34 6.33 -13.68 6.66 -13 7 C-11.00039988 7.039992 -8.99952758 7.04346799 -7 7 C-7 6.34 -7 5.68 -7 5 C-4 3 -4 3 0 3 C0 2.01 0 1.02 0 0 Z " fill="#F7E325" transform="translate(127,147)"/>
<path d="M0 0 C2 1 2 1 3 3 C3.039992 4.99960012 3.04346799 7.00047242 3 9 C1.35 9.33 -0.3 9.66 -2 10 C-1.54177532 6.53058454 -1.10868317 3.32604951 0 0 Z " fill="#17039E" transform="translate(127,70)"/>
<path d="M0 0 C4.31392226 0.4793247 6.16569547 1.7457985 9 5 C6.69 5.33 4.38 5.66 2 6 C1.67 5.01 1.34 4.02 1 3 C0.01 3.33 -0.98 3.66 -2 4 C-1.34 2.68 -0.68 1.36 0 0 Z " fill="#180691" transform="translate(100,13)"/>
<path d="M0 0 C1.45922693 0.11409593 2.91740598 0.24165544 4.375 0.375 C5.59316406 0.47941406 5.59316406 0.47941406 6.8359375 0.5859375 C9 1 9 1 11 3 C7.37 3.33 3.74 3.66 0 4 C-0.33 5.32 -0.66 6.64 -1 8 C-2 6 -2 6 -1.0625 2.875 C-0.5365625 1.451875 -0.5365625 1.451875 0 0 Z " fill="#E9D244" transform="translate(111,61)"/>
<path d="M0 0 C2.97 0.495 2.97 0.495 6 1 C5.67 1.99 5.34 2.98 5 4 C6.32 4.66 7.64 5.32 9 6 C8.67 6.99 8.34 7.98 8 9 C7.67 8.01 7.34 7.02 7 6 C2.67366449 3.56643627 -2.14557204 3.40189164 -7 3 C-7 2.67 -7 2.34 -7 2 C-3.535 1.505 -3.535 1.505 0 1 C0 0.67 0 0.34 0 0 Z " fill="#1A0890" transform="translate(137,32)"/>
<path d="M0 0 C0.33 0 0.66 0 1 0 C1.09796875 0.58007812 1.1959375 1.16015625 1.296875 1.7578125 C2.31879515 7.09646432 3.68373256 10.68885232 7 15 C5.68 15 4.36 15 3 15 C3 14.01 3 13.02 3 12 C2.34 12 1.68 12 1 12 C1 10.35 1 8.7 1 7 C0.34 7 -0.32 7 -1 7 C-1.04254356 5.00045254 -1.04080783 2.99958364 -1 1 C-0.67 0.67 -0.34 0.34 0 0 Z " fill="#F3E12A" transform="translate(90,105)"/>
<path d="M0 0 C1.32 0 2.64 0 4 0 C4.33 1.32 4.66 2.64 5 4 C3.35 5.32 1.7 6.64 0 8 C-0.66 7.67 -1.32 7.34 -2 7 C-1.34 4.69 -0.68 2.38 0 0 Z " fill="#1A0A95" transform="translate(173,24)"/>
<path d="M0 0 C0.66 0.33 1.32 0.66 2 1 C2 2.32 2 3.64 2 5 C2.66 5 3.32 5 4 5 C4 7.31 4 9.62 4 12 C1.03 11.505 1.03 11.505 -2 11 C-2.33 9.68 -2.66 8.36 -3 7 C-0.525 8.485 -0.525 8.485 2 10 C1.34 6.7 0.68 3.4 0 0 Z " fill="#1C0B8F" transform="translate(115,13)"/>
<path d="M0 0 C0.66 0.33 1.32 0.66 2 1 C1.34 2.32 0.68 3.64 0 5 C1.98 5 3.96 5 6 5 C3.07914607 6.94723595 1.40667322 7.55175352 -2 8 C-3 7 -3 7 -3.25 4.5625 C-3.1675 3.716875 -3.085 2.87125 -3 2 C-2.01 1.34 -1.02 0.68 0 0 Z " fill="#29187E" transform="translate(144,89)"/>
<path d="M0 0 C2.12508244 3.18762365 2.5020163 5.26512223 3 9 C-1.625 12 -1.625 12 -5 12 C-5 11.34 -5 10.68 -5 10 C-4.01 10 -3.02 10 -2 10 C-2 9.34 -2 8.68 -2 8 C-1.34 8 -0.68 8 0 8 C0 5.36 0 2.72 0 0 Z " fill="#160989" transform="translate(155,82)"/>
<path d="M0 0 C0.33 0 0.66 0 1 0 C1.06058594 0.92683594 1.12117188 1.85367188 1.18359375 2.80859375 C1.26738281 4.00613281 1.35117188 5.20367187 1.4375 6.4375 C1.51871094 7.63246094 1.59992188 8.82742187 1.68359375 10.05859375 C1.67656114 12.88570244 1.67656114 12.88570244 3 14 C4.68183948 14.23287008 6.3712416 14.41264166 8.0625 14.5625 C8.98160156 14.64628906 9.90070313 14.73007812 10.84765625 14.81640625 C11.55792969 14.87699219 12.26820312 14.93757813 13 15 C13 15.33 13 15.66 13 16 C11.02090602 16.02686553 9.04171029 16.04633375 7.0625 16.0625 C5.96035156 16.07410156 4.85820313 16.08570312 3.72265625 16.09765625 C1 16 1 16 0 15 C-0.07313567 12.46950598 -0.09247527 9.96695163 -0.0625 7.4375 C-0.05798828 6.72658203 -0.05347656 6.01566406 -0.04882812 5.28320312 C-0.03700864 3.52209987 -0.01907263 1.76103964 0 0 Z " fill="#281781" transform="translate(86,41)"/>
<path d="M0 0 C1.60080151 4.00200378 0.29279692 7.04556236 -1 11 C-0.01 11.33 0.98 11.66 2 12 C-1.75 15 -1.75 15 -4 15 C-3.52229477 13.06213915 -3.04278429 11.12472326 -2.5625 9.1875 C-2.29566406 8.10855469 -2.02882813 7.02960938 -1.75390625 5.91796875 C-1.23922588 3.9259157 -0.65062825 1.95188476 0 0 Z " fill="#3E2251" transform="translate(126,69)"/>
<path d="M0 0 C0.99 0.66 1.98 1.32 3 2 C1.63016497 5.16115776 1.0109362 5.9927092 -2 8 C-3.32 6.68 -4.64 5.36 -6 4 C-3.525 4.495 -3.525 4.495 -1 5 C-1.33 4.01 -1.66 3.02 -2 2 C-1.34 1.34 -0.68 0.68 0 0 Z " fill="#F4E328" transform="translate(140,135)"/>
<path d="M0 0 C2.0245738 1.93254772 3.42105792 3.63158688 5 6 C5 7.32 5 8.64 5 10 C4.01 9.67 3.02 9.34 2 9 C2 7.68 2 6.36 2 5 C1.01 4.67 0.02 4.34 -1 4 C-1.33 3.01 -1.66 2.02 -2 1 C-1.34 0.67 -0.68 0.34 0 0 Z " fill="#FDE505" transform="translate(388,109)"/>
<path d="M0 0 C1.485 0.99 1.485 0.99 3 2 C5.32387947 2.39387788 7.65793749 2.73486085 10 3 C8.68 4.32 7.36 5.64 6 7 C3.95880212 5.38405168 1.95927063 3.7143618 0 2 C0 1.34 0 0.68 0 0 Z " fill="#F6E42B" transform="translate(66,137)"/>
<path d="M0 0 C0 0.66 0 1.32 0 2 C-3.96 2 -7.92 2 -12 2 C-12 1.34 -12 0.68 -12 0 C-7.74433453 -1.16063604 -4.3164922 -0.76173392 0 0 Z " fill="#FDE504" transform="translate(285,122)"/>
<path d="M0 0 C0.99 0.33 1.98 0.66 3 1 C3.94921875 3.28515625 3.94921875 3.28515625 4.6875 6.0625 C4.93886719 6.98160156 5.19023437 7.90070313 5.44921875 8.84765625 C5.63097656 9.55792969 5.81273437 10.26820312 6 11 C4.33333333 9.33333333 2.66666667 7.66666667 1 6 C0.67 6 0.34 6 0 6 C0 4.02 0 2.04 0 0 Z " fill="#F9E21E" transform="translate(387,104)"/>
<path d="M0 0 C1.5 1.375 1.5 1.375 3 3 C3 3.66 3 4.32 3 5 C2.01 5 1.02 5 0 5 C0.33 6.65 0.66 8.3 1 10 C-1.32472205 7.14693203 -2.7508258 4.45925163 -4 1 C-3.34 1 -2.68 1 -2 1 C-2 1.66 -2 2.32 -2 3 C-1.34 3 -0.68 3 0 3 C0 2.01 0 1.02 0 0 Z " fill="#F6E037" transform="translate(433,101)"/>
<path d="M0 0 C1.5 1.3125 1.5 1.3125 3 3 C3 3.99 3 4.98 3 6 C2.01 6 1.02 6 0 6 C-0.33 6.66 -0.66 7.32 -1 8 C-1.66 7.34 -2.32 6.68 -3 6 C-2.63318342 3.06546739 -2.13562754 2.13562754 0 0 Z " fill="#FCE30B" transform="translate(382,93)"/>
<path d="M0 0 C1.4606285 2.64738916 2 3.89448334 2 7 C3.98 6.67 5.96 6.34 8 6 C8 6.99 8 7.98 8 9 C6.35 9.33 4.7 9.66 3 10 C0.59185923 6.48812804 -0.36629408 4.27343092 0 0 Z " fill="#F7DF30" transform="translate(213,98)"/>
<path d="M0 0 C2.97 0 5.94 0 9 0 C9 0.66 9 1.32 9 2 C7.741875 2.103125 6.48375 2.20625 5.1875 2.3125 C2.39500343 2.64858808 1.25566879 2.80025876 -1 4.5625 C-1.33 5.036875 -1.66 5.51125 -2 6 C-1.34 4.02 -0.68 2.04 0 0 Z " fill="#1E0E85" transform="translate(164,92)"/>
<path d="M0 0 C0.66 0.33 1.32 0.66 2 1 C1.01 2.485 1.01 2.485 0 4 C0.66 4 1.32 4 2 4 C1.67 5.65 1.34 7.3 1 9 C0.67 7.68 0.34 6.36 0 5 C-0.66 5 -1.32 5 -2 5 C-2 5.66 -2 6.32 -2 7 C-2.66 7 -3.32 7 -4 7 C-2.92598892 4.08482708 -2.22189824 2.22189824 0 0 Z " fill="#F6E331" transform="translate(269,94)"/>
<path d="M0 0 C0.66 0.33 1.32 0.66 2 1 C1.01 1.33 0.02 1.66 -1 2 C-1 2.66 -1 3.32 -1 4 C-1.66 4 -2.32 4 -3 4 C-3 5.98 -3 7.96 -3 10 C-4.74627478 7.38058783 -5.38722388 5.96175123 -6 3 C-4.03533587 1.93224776 -2.03144641 0.93446535 0 0 Z " fill="#F3E029" transform="translate(88,62)"/>
<path d="M0 0 C2 2 2 2 2.125 5.125 C2.08375 6.07375 2.0425 7.0225 2 8 C1.34 7.01 0.68 6.02 0 5 C-1.96361864 4.42251197 -1.96361864 4.42251197 -4.125 4.3125 C-5.40375 4.209375 -6.6825 4.10625 -8 4 C-8 3.67 -8 3.34 -8 3 C-7.05125 2.690625 -6.1025 2.38125 -5.125 2.0625 C-2.13919592 1.12605258 -2.13919592 1.12605258 0 0 Z " fill="#D9BC37" transform="translate(98,58)"/>
<path d="M0 0 C2 3 2 3 2 6 C3.32 6.33 4.64 6.66 6 7 C4.02253397 7.73080266 2.01927511 8.39421747 0 9 C-0.66 8.67 -1.32 8.34 -2 8 C-2 7.01 -2 6.02 -2 5 C-1.34 4.67 -0.68 4.34 0 4 C0 2.68 0 1.36 0 0 Z " fill="#160598" transform="translate(132,11)"/>
<path d="M0 0 C1.32 1.32 2.64 2.64 4 4 C3.34 5.32 2.68 6.64 2 8 C0.68 7.34 -0.64 6.68 -2 6 C-1.34 4.02 -0.68 2.04 0 0 Z " fill="#FAE02B" transform="translate(441,99)"/>
<path d="M0 0 C0.99 0.33 1.98 0.66 3 1 C1 4 1 4 -2 5 C-3.89470816 5.0685495 -5.7916834 5.08480372 -7.6875 5.0625 C-8.68136719 5.05347656 -9.67523438 5.04445313 -10.69921875 5.03515625 C-11.83810547 5.01775391 -11.83810547 5.01775391 -13 5 C-13 4.67 -13 4.34 -13 4 C-6.565 3.505 -6.565 3.505 0 3 C0 2.01 0 1.02 0 0 Z " fill="#F2E039" transform="translate(229,121)"/>
<path d="M0 0 C1.98 0.99 3.96 1.98 6 3 C5.25 7.75 5.25 7.75 3 10 C3.0928125 8.576875 3.0928125 8.576875 3.1875 7.125 C3.125625 6.09375 3.06375 5.0625 3 4 C2.01 3.34 1.02 2.68 0 2 C0 1.34 0 0.68 0 0 Z " fill="#1B0A8A" transform="translate(172,64)"/>
<path d="M0 0 C0.33 0 0.66 0 1 0 C1 2.64 1 5.28 1 8 C1.99 8 2.98 8 4 8 C4 8.66 4 9.32 4 10 C2.02 9.34 0.04 8.68 -2 8 C-1.34 5.36 -0.68 2.72 0 0 Z " fill="#F4E22A" transform="translate(84,144)"/>
<path d="M0 0 C1.65 0 3.3 0 5 0 C5 2.31 5 4.62 5 7 C4.34 7 3.68 7 3 7 C3 5.35 3 3.7 3 2 C2.01 2.33 1.02 2.66 0 3 C0 2.01 0 1.02 0 0 Z " fill="#F4E227" transform="translate(84,131)"/>
<path d="M0 0 C2.44839588 3.67259383 4 6.54648201 4 11 C3.34 11 2.68 11 2 11 C2 9.68 2 8.36 2 7 C1.34 7 0.68 7 0 7 C0 4.69 0 2.38 0 0 Z " fill="#1B0A8F" transform="translate(173,94)"/>
<path d="M0 0 C0.99 0.33 1.98 0.66 3 1 C2.67 3.97 2.34 6.94 2 10 C1.67 10 1.34 10 1 10 C1 8.02 1 6.04 1 4 C0.34 4 -0.32 4 -1 4 C-0.67 2.68 -0.34 1.36 0 0 Z " fill="#F8E12C" transform="translate(378,97)"/>
<path d="M0 0 C1.31538327 4.15771494 0.34433068 6.8879297 -1 11 C-1.99 11 -2.98 11 -4 11 C-3.19315107 8.57945321 -2.33732102 6.19898183 -1.4375 3.8125 C-1.03337891 2.73935547 -1.03337891 2.73935547 -0.62109375 1.64453125 C-0.41613281 1.10183594 -0.21117188 0.55914062 0 0 Z " fill="#E2C638" transform="translate(108,70)"/>
<path d="M0 0 C2.475 0.99 2.475 0.99 5 2 C4.67 3.32 4.34 4.64 4 6 C3.34 6 2.68 6 2 6 C2 5.34 2 4.68 2 4 C1.34 4 0.68 4 0 4 C0 2.68 0 1.36 0 0 Z " fill="#FCE50B" transform="translate(429,98)"/>
<path d="M0 0 C0.99 0 1.98 0 3 0 C3 1.32 3 2.64 3 4 C3.66 4 4.32 4 5 4 C4.67 5.65 4.34 7.3 4 9 C3.34 8.67 2.68 8.34 2 8 C1.60828247 6.34608154 1.27942455 4.67654729 1 3 C0.67 2.01 0.34 1.02 0 0 Z " fill="#30186A" transform="translate(144,80)"/>
<path d="M0 0 C-0.33 1.32 -0.66 2.64 -1 4 C-2.32 4 -3.64 4 -5 4 C-5.33 4.66 -5.66 5.32 -6 6 C-6.33 5.01 -6.66 4.02 -7 3 C-3.375 0 -3.375 0 0 0 Z " fill="#1C0C93" transform="translate(108,58)"/>
<path d="M0 0 C2.31 0.33 4.62 0.66 7 1 C2.25 4.875 2.25 4.875 0 6 C0 4.02 0 2.04 0 0 Z " fill="#190791" transform="translate(123,34)"/>
<path d="M0 0 C0.99 0.99 1.98 1.98 3 3 C1.93453047 5.13093906 0.70840281 6.36587557 -1 8 C-1.66 6.35 -2.32 4.7 -3 3 C-2.01 2.67 -1.02 2.34 0 2 C0 1.34 0 0.68 0 0 Z " fill="#F3E02F" transform="translate(416,112)"/>
<path d="M0 0 C0.66 0.33 1.32 0.66 2 1 C2 3.64 2 6.28 2 9 C-0.15377564 6.37801226 -1.40072174 4.35595828 -2 1 C-1.34 0.67 -0.68 0.34 0 0 Z " fill="#F7E939" transform="translate(426,91)"/>
<path d="M0 0 C0.66 0.33 1.32 0.66 2 1 C1.67 1.99 1.34 2.98 1 4 C-2.5625 5.1875 -2.5625 5.1875 -6 6 C-4 4 -2 2 0 0 Z " fill="#E7D041" transform="translate(129,79)"/>
<path d="M0 0 C1.65 0.99 3.3 1.98 5 3 C2.33333333 3.66666667 -0.33333333 4.33333333 -3 5 C-1.125 1.125 -1.125 1.125 0 0 Z " fill="#F4E133" transform="translate(71,72)"/>
<path d="M0 0 C0.99 0.495 0.99 0.495 2 1 C2.59355614 3.64860427 2.74209269 6.29197322 3 9 C2.01 8.67 1.02 8.34 0 8 C0 5.36 0 2.72 0 0 Z " fill="#F8E522" transform="translate(122,131)"/>
<path d="M0 0 C1.32 0.33 2.64 0.66 4 1 C4.33 2.32 4.66 3.64 5 5 C2.525 4.01 2.525 4.01 0 3 C0 2.01 0 1.02 0 0 Z " fill="#FCE209" transform="translate(227,110)"/>
<path d="M0 0 C1.98 0 3.96 0 6 0 C4.3545622 1.68762851 2.68711423 3.3540349 1 5 C0.67 5 0.34 5 0 5 C0 3.35 0 1.7 0 0 Z " fill="#2D1172" transform="translate(130,74)"/>
<path d="M0 0 C2.97 0.495 2.97 0.495 6 1 C4.71034824 2.37562854 3.37310707 3.70766393 2 5 C1.34 5 0.68 5 0 5 C0 3.35 0 1.7 0 0 Z " fill="#1A0795" transform="translate(164,32)"/>
</svg>
